<svg width="148" height="28" viewBox="0 0 148 28" fill="none" xmlns="http://www.w3.org/2000/svg">
<path fill-rule="evenodd" clip-rule="evenodd" d="M134.152 0.431763C141.658 0.431763 147.792 6.49362 147.792 14.0709C147.792 21.5761 141.658 27.7101 134.152 27.7101C126.575 27.7101 120.513 21.5761 120.513 14.0709C120.513 6.49362 126.575 0.431763 134.152 0.431763ZM134.152 3.60702C139.853 3.60702 144.544 8.29774 144.544 14.0709C144.544 19.8441 139.853 24.4627 134.152 24.4627C128.379 24.4627 123.688 19.8441 123.688 14.0709C123.688 8.29774 128.379 3.60702 134.152 3.60702Z" fill="#373435"/>
<path d="M20.6392 19.5567C20.6392 10.4639 7.14433 12.5567 7.14433 7.86598C7.14433 6.13402 8.37113 5.34021 9.95876 5.34021C11.6907 5.41237 12.9897 6.42268 13.0619 8.15464H20.2783C19.9897 2.95876 16.0206 0 10.0309 0C4.3299 0 0.0721649 2.8866 0.0721649 8.08247C0 17.7526 13.6392 15.0103 13.6392 20.0619C13.6392 21.6495 12.4124 22.6598 10.4639 22.6598C8.58763 22.6598 7.28866 21.6495 7.07216 19.5567H0C0.216495 25.0412 4.76289 28 10.6804 28C17.0309 28 20.6392 24.1753 20.6392 19.5567Z" fill="#373435"/>
<path d="M41.4273 0.431763H24.6851V27.7101H41.4273V22.3699H31.3242V16.3802H40.2727V11.2565H31.3242V5.77197H41.4273V0.431763Z" fill="#373435"/>
<path d="M62.4284 0.431763H45.7583V27.7101H62.4284V22.3699H52.3975V16.3802H61.2738V11.2565H52.3975V5.77197H62.4284V0.431763Z" fill="#373435"/>
<path d="M82.5619 27.7101H90.7166L79.7475 13.7823L90.3558 0.431763H82.4898L73.397 12.4111V0.431763H66.7578V27.7101H73.397V15.6586L82.5619 27.7101Z" fill="#373435"/>
<path d="M110.852 27.7101H117.491V0.431763H110.852V11.1122H100.532V0.431763H93.8928V27.7101H100.532V16.4524H110.852V27.7101Z" fill="#373435"/>
<path fill-rule="evenodd" clip-rule="evenodd" d="M142.462 14.4321C138.132 14.5043 134.596 18.0404 134.524 22.3703C134.524 22.9476 133.73 22.9476 133.73 22.3703C133.658 18.0404 130.122 14.5043 125.792 14.4321C125.215 14.4321 125.215 13.6383 125.792 13.6383C130.122 13.6383 133.658 10.1022 133.73 5.70016C133.73 5.195 134.524 5.195 134.524 5.70016C134.596 10.1022 138.132 13.6383 142.462 13.6383C142.679 13.6383 142.895 13.8548 142.895 14.0713C142.895 14.2878 142.679 14.4321 142.462 14.4321Z" fill="#E65E69"/>
</svg>
